<svg xmlns="http://www.w3.org/2000/svg" xmlns:xlink="http://www.w3.org/1999/xlink" version="1.1" x="0px" y="0px" viewBox="0 0 100 125" enable-background="new 0 0 100 100" xml:space="preserve"><path fill="white" d="M50,0c27.573,0,50,22.43,50,50c0,27.575-22.427,50-50,50C22.438,100,0,77.575,0,50C0,22.43,22.438,0,50,0   M53.891,77.942c1.198-1.192,1.807-2.648,1.807-4.332c0-1.683-0.606-3.139-1.8-4.327c-1.192-1.198-2.648-1.805-4.332-1.805  c-1.683,0-3.14,0.606-4.331,1.803c-1.192,1.198-1.799,2.655-1.799,4.329c0,1.675,0.606,3.132,1.799,4.327  c1.191,1.196,2.65,1.801,4.331,1.801S52.705,79.134,53.891,77.942z M53.005,63.772c1.064-0.868,1.604-2.19,1.604-3.928  c0-0.991,0.285-1.943,0.864-2.905c1.142-1.851,3.081-3.805,5.755-5.798c5.259-3.861,7.924-8.43,7.924-13.575  c0-4.902-1.805-8.902-5.352-11.876c-3.372-2.873-7.966-4.329-13.653-4.329c-5.334,0-10.203,1.332-14.454,3.949  c-2.214,1.326-2.68,3.127-2.68,4.4c0,1.165,0.461,2.243,1.336,3.121c0.871,0.877,1.938,1.339,3.085,1.339  c1.035,0,2.021-0.286,2.968-0.873c2.331-1.536,5.401-2.317,9.126-2.317c8.619,0,9.616,3.979,9.616,6.972  c0,0.988-0.315,1.91-0.966,2.825c-0.501,0.709-1.884,2.182-5.601,5.162c-5.188,4.017-7.819,8.892-7.819,14.488  c0,1.246,0.506,2.371,1.459,3.244c0.932,0.856,2.07,1.293,3.389,1.293C50.89,64.965,52.033,64.562,53.005,63.772z"/></svg>
