<svg xmlns="http://www.w3.org/2000/svg" xmlns:xlink="http://www.w3.org/1999/xlink" version="1.1" x="0px" y="0px" viewBox="0 0 100 125" enable-background="new 0 0 100 100" xml:space="preserve"><path d="M29.496,59c0,6.625-5.371,11.996-11.996,11.996S5.504,65.625,5.504,59S10.875,47.004,17.5,47.004S29.496,52.375,29.496,59z   M17.5,76.996c-2.679,0-5.213-0.604-7.5-1.659v11.713c0,3.85,3.15,7,7,7h1c3.85,0,7-3.15,7-7V75.338  C22.713,76.392,20.179,76.996,17.5,76.996z M10,42.662V13.051c0-3.85,3.15-7,7-7h1c3.85,0,7,3.15,7,7v29.611  c-1.9-0.876-3.973-1.428-6.157-1.59c-0.443-0.04-0.889-0.068-1.343-0.068s-0.9,0.028-1.343,0.068  C13.973,41.234,11.9,41.787,10,42.662z M61.996,36c0,6.625-5.371,11.996-11.996,11.996S38.004,42.625,38.004,36  S43.375,24.004,50,24.004S61.996,29.375,61.996,36z M48.657,18.072c0.443-0.04,0.889-0.068,1.343-0.068s0.9,0.028,1.343,0.068  c2.185,0.162,4.257,0.715,6.157,1.59v-6.611c0-3.85-3.15-7-7-7h-1c-3.85,0-7,3.15-7,7v6.611  C44.4,18.787,46.473,18.234,48.657,18.072z M50,53.996c-2.679,0-5.213-0.604-7.5-1.659v34.713c0,3.85,3.15,7,7,7h1  c3.85,0,7-3.15,7-7V52.338C55.213,53.392,52.679,53.996,50,53.996z M95,63c0,6.625-5.371,11.996-11.996,11.996  c-6.625,0-11.996-5.371-11.996-11.996s5.371-11.996,11.996-11.996C89.629,51.004,95,56.375,95,63z M83.004,45.004  c2.679,0,5.213,0.604,7.5,1.659V13.051c0-3.85-3.15-7-7-7h-1c-3.85,0-7,3.15-7,7v33.611C77.79,45.608,80.325,45.004,83.004,45.004z   M84.347,80.928c-0.443,0.04-0.889,0.068-1.343,0.068s-0.9-0.028-1.343-0.068c-2.185-0.162-4.257-0.715-6.157-1.59v7.713  c0,3.85,3.15,7,7,7h1c3.85,0,7-3.15,7-7v-7.713C88.604,80.213,86.531,80.766,84.347,80.928z" fill="white"/></svg>
