<svg xmlns="http://www.w3.org/2000/svg" xmlns:xlink="http://www.w3.org/1999/xlink" version="1.1" x="0px" y="0px" viewBox="0 0 100 125" enable-background="new 0 0 100 100" xml:space="preserve"><path d="M83.859,16.206c0,0-23.674-0.307-32.055,9.665C45.602,33.25,49.17,44.598,51.443,50c-3.935,7.716-5.833,15.403-5.833,15.403  c-0.896-3.42-2.757-6.12-4.822-8.217c1.382-4.125,3.295-12.46-1.561-17.476c-6.645-6.862-23.943-5.418-23.943-5.418  s-2.002,17.246,4.641,24.106c5.219,5.39,14.528,3.088,18.28,1.854c4.117,8.024,5.277,16.855,5.418,23.544  c1.824-0.314,3.708-0.501,5.669-0.496c0.478,0.001,0.942,0.033,1.412,0.055c-1.157-11.863,1.07-21.89,4.197-29.706  c5.037,1.308,18.253,3.764,24.95-4.208C88.231,39.472,83.859,16.206,83.859,16.206z"/></svg>
