<svg xmlns="http://www.w3.org/2000/svg" xmlns:xlink="http://www.w3.org/1999/xlink" version="1.1" x="0px" y="0px" viewBox="0 0 100 125" enable-background="new 0 0 100 100" xml:space="preserve"><path d="M48.864,20.325c-19.073,0-34.588,15.519-34.588,34.588c0,19.068,15.516,34.587,34.588,34.587  c19.072,0,34.587-15.519,34.587-34.587C83.451,35.844,67.936,20.325,48.864,20.325z M48.864,83.166  c-15.581,0-28.255-12.673-28.255-28.253c0-15.582,12.674-28.255,28.255-28.255c15.58,0,28.253,12.673,28.253,28.255  C77.117,70.493,64.443,83.166,48.864,83.166z M26.943,52.07c-1.571,0-2.839,1.271-2.839,2.843c0,1.57,1.268,2.838,2.839,2.838  s2.846-1.268,2.846-2.838C29.789,53.342,28.514,52.07,26.943,52.07z M67.938,54.913c0,1.57,1.273,2.838,2.849,2.838  c1.562,0,2.835-1.268,2.835-2.838c0-1.571-1.273-2.843-2.835-2.843C69.212,52.07,67.938,53.342,67.938,54.913z M31.35,37.402  c-1.107,1.114-1.107,2.907,0,4.021c1.113,1.11,2.913,1.116,4.023,0c1.107-1.107,1.107-2.907,0-4.021  C34.263,36.295,32.463,36.295,31.35,37.402z M62.354,68.402c-1.113,1.107-1.113,2.907,0,4.021c1.107,1.11,2.906,1.11,4.02,0  c1.107-1.113,1.107-2.913,0-4.021C65.26,67.289,63.461,67.296,62.354,68.402z M48.864,73.987c-1.571,0-2.846,1.274-2.846,2.849  c0.002,1.565,1.274,2.836,2.846,2.836c1.564,0,2.835-1.271,2.835-2.836C51.699,75.262,50.428,73.994,48.864,73.987z M52.03,49.835  v-16.5c0-1.753-1.417-3.167-3.167-3.167c-1.751,0-3.167,1.413-3.167,3.167v16.496c-1.697,1.059-2.83,2.936-2.83,5.082  c0.01,3.302,2.691,5.993,6,5.993c3.296,0,5.988-2.691,5.988-5.993C54.854,52.767,53.722,50.894,52.03,49.835z M66.367,41.422  c1.113-1.114,1.108-2.907,0-4.021c-1.107-1.107-2.906-1.107-4.021,0c-1.106,1.114-1.106,2.907,0,4.021  C63.461,42.533,65.26,42.533,66.367,41.422z M31.353,68.402c-1.107,1.107-1.113,2.907,0,4.021c1.107,1.11,2.91,1.11,4.02,0  c1.107-1.113,1.104-2.913,0-4.021C34.26,67.289,32.463,67.289,31.353,68.402z M41.682,18.476l14.362,0.006  c0.989-0.006,1.794-0.804,1.794-1.8V11.3c0-0.996-0.805-1.8-1.794-1.8H41.682c-0.996,0-1.797,0.804-1.793,1.8l-0.003,5.382  C39.889,17.678,40.692,18.481,41.682,18.476z M84.305,27.604l-8.125-8.121c-0.559-0.569-1.469-0.569-2.031,0l-3.043,3.042  c-0.562,0.567-0.562,1.473,0,2.032l8.121,8.124c0.562,0.558,1.469,0.563,2.032,0l3.046-3.042  C84.864,29.077,84.864,28.167,84.305,27.604z"/></svg>
